<svg width="51" height="49" viewBox="0 0 51 49" fill="none" xmlns="http://www.w3.org/2000/svg">
<g id="Group 14468">
<rect id="Rectangle 132" x="0.992188" y="0.101562" width="50" height="47.9188" rx="4" fill="url(#paint0_linear_2582_517)"/>
<g id="Group 15">
<path id="Vector" d="M22.3265 24.0604C22.3265 21.7669 24.1915 19.9071 26.4927 19.9071C28.7939 19.9071 30.6599 21.7669 30.6599 24.0604C30.6599 26.354 28.7939 28.2137 26.4927 28.2137C24.1915 28.2137 22.3265 26.354 22.3265 24.0604ZM20.0738 24.0604C20.0738 27.5938 22.9475 30.4579 26.4927 30.4579C30.0378 30.4579 32.9115 27.5938 32.9115 24.0604C32.9115 20.5271 30.0378 17.663 26.4927 17.663C22.9475 17.663 20.0738 20.5271 20.0738 24.0604ZM31.6656 17.4093C31.6655 17.705 31.7533 17.9941 31.9181 18.24C32.0828 18.4859 32.317 18.6777 32.5911 18.7909C32.8651 18.9042 33.1667 18.9339 33.4577 18.8763C33.7487 18.8188 34.0161 18.6765 34.2259 18.4675C34.4358 18.2585 34.5788 17.9921 34.6368 17.7022C34.6948 17.4122 34.6652 17.1115 34.5518 16.8383C34.4383 16.5651 34.2462 16.3315 33.9995 16.1671C33.7529 16.0027 33.4629 15.9149 33.1663 15.9148H33.1657C32.768 15.915 32.3866 16.0725 32.1054 16.3527C31.8241 16.6329 31.6659 17.0129 31.6656 17.4093ZM21.4425 34.2017C20.2237 34.1464 19.5613 33.944 19.1211 33.7731C18.5375 33.5466 18.1211 33.2769 17.6832 32.8412C17.2454 32.4054 16.9744 31.9908 16.7482 31.4091C16.5766 30.9705 16.3736 30.3101 16.3182 29.0954C16.2576 27.7822 16.2455 27.3877 16.2455 24.0605C16.2455 20.7334 16.2586 20.34 16.3182 19.0257C16.3737 17.811 16.5782 17.1518 16.7482 16.712C16.9754 16.1303 17.246 15.7153 17.6832 15.2789C18.1205 14.8426 18.5365 14.5725 19.1211 14.347C19.5611 14.176 20.2237 13.9736 21.4425 13.9184C22.7601 13.858 23.156 13.846 26.4927 13.846C29.8294 13.846 30.2256 13.859 31.5444 13.9184C32.7631 13.9737 33.4245 14.1776 33.8658 14.347C34.4494 14.5725 34.8658 14.8432 35.3036 15.2789C35.7415 15.7147 36.0115 16.1303 36.2387 16.712C36.4103 17.1505 36.6133 17.811 36.6687 19.0257C36.7293 20.34 36.7414 20.7334 36.7414 24.0605C36.7414 27.3877 36.7293 27.7811 36.6687 29.0954C36.6132 30.3101 36.4092 30.9703 36.2387 31.4091C36.0115 31.9908 35.7409 32.4058 35.3036 32.8412C34.8664 33.2765 34.4494 33.5466 33.8658 33.7731C33.4258 33.9441 32.7631 34.1465 31.5444 34.2017C30.2267 34.2621 29.8309 34.2741 26.4927 34.2741C23.1545 34.2741 22.7597 34.2621 21.4425 34.2017ZM21.339 11.677C20.0082 11.7374 19.0989 11.9477 18.3048 12.2557C17.4823 12.5738 16.7861 13.0004 16.0904 13.6928C15.3946 14.3851 14.9676 15.0801 14.6485 15.8998C14.3395 16.6918 14.1285 17.5976 14.0679 18.9239C14.0063 20.2523 13.9922 20.677 13.9922 24.0604C13.9922 27.4439 14.0063 27.8686 14.0679 29.197C14.1285 30.5234 14.3395 31.4291 14.6485 32.2211C14.9676 33.0403 15.3947 33.7361 16.0904 34.4281C16.786 35.1201 17.4823 35.5462 18.3048 35.8652C19.1004 36.1732 20.0082 36.3835 21.339 36.4439C22.6725 36.5043 23.098 36.5193 26.4927 36.5193C29.8874 36.5193 30.3135 36.5053 31.6464 36.4439C32.9772 36.3835 33.886 36.1732 34.6806 35.8652C35.5025 35.5462 36.1993 35.1204 36.895 34.4281C37.5907 33.7358 38.0168 33.0403 38.3369 32.2211C38.6459 31.4291 38.8579 30.5233 38.9175 29.197C38.9781 27.8676 38.9922 27.4439 38.9922 24.0604C38.9922 20.677 38.9781 20.2523 38.9175 18.9239C38.8569 17.5975 38.6459 16.6913 38.3369 15.8998C38.0168 15.0806 37.5896 14.3862 36.895 13.6928C36.2004 12.9993 35.5026 12.5738 34.6816 12.2557C33.886 11.9477 32.9771 11.7364 31.6474 11.677C30.3145 11.6166 29.8884 11.6016 26.4937 11.6016C23.099 11.6016 22.6725 11.6156 21.339 11.677Z" fill="white"/>
</g>
</g>
<defs>
<linearGradient id="paint0_linear_2582_517" x1="0.992188" y1="24.0609" x2="50.9922" y2="24.0609" gradientUnits="userSpaceOnUse">
<stop stop-color="#586BE7"/>
<stop offset="0.5" stop-color="#BB4B9B"/>
<stop offset="1" stop-color="#F93745"/>
</linearGradient>
</defs>
</svg>
