<svg width="52" height="49" viewBox="0 0 52 49" fill="none" xmlns="http://www.w3.org/2000/svg">
<g id="Group 14469">
<rect id="Rectangle 133" x="0.992188" y="0.101562" width="51" height="47.9188" rx="4" fill="#00ACEE"/>
<g id="Capa 2">
<g id="ELEMENTS">
<path id="Vector" d="M38.4248 16.7791C37.6636 17.1028 36.8635 17.3282 36.044 17.4498C36.4271 17.3849 36.9909 16.7034 37.2152 16.4276C37.5561 16.0115 37.8159 15.5365 37.9815 15.0268C37.9815 14.9889 38.0198 14.9348 37.9815 14.9078C37.9621 14.8974 37.9405 14.8919 37.9185 14.8919C37.8965 14.8919 37.8749 14.8974 37.8556 14.9078C36.9658 15.384 36.0188 15.7474 35.037 15.9895C35.0028 15.9998 34.9664 16.0007 34.9317 15.9922C34.897 15.9836 34.8653 15.9658 34.84 15.9408C34.7636 15.8509 34.6813 15.766 34.5937 15.6866C34.1933 15.332 33.739 15.0419 33.2474 14.8267C32.5838 14.5576 31.8671 14.4411 31.1512 14.4859C30.4567 14.5293 29.7786 14.7134 29.1591 15.0268C28.5491 15.3572 28.0129 15.8061 27.5829 16.3464C27.1306 16.9026 26.804 17.5481 26.6251 18.2394C26.4777 18.897 26.4609 19.5766 26.5759 20.2405C26.5759 20.3541 26.5759 20.3703 26.4774 20.3541C22.5752 19.7862 19.3735 18.4179 16.7575 15.4811C16.6425 15.3513 16.5823 15.3513 16.4893 15.4811C15.3509 17.1902 15.9037 19.8944 17.3266 21.2303C17.5182 21.4088 17.7152 21.5818 17.9232 21.7441C17.2708 21.6983 16.6343 21.5236 16.0514 21.2303C15.942 21.16 15.8818 21.1978 15.8763 21.3276C15.8608 21.5076 15.8608 21.6885 15.8763 21.8685C15.9905 22.7309 16.3344 23.5479 16.8729 24.2359C17.4114 24.9239 18.1252 25.4582 18.9411 25.7842C19.1401 25.8684 19.3473 25.9318 19.5596 25.9735C18.9556 26.091 18.3362 26.1093 17.7262 26.0276C17.5948 26.0005 17.5456 26.0708 17.5948 26.1952C18.3993 28.3586 20.1452 29.0185 21.4259 29.3862C21.601 29.4133 21.7761 29.4133 21.9731 29.4565C21.9731 29.4565 21.9731 29.4565 21.9403 29.489C21.5627 30.1705 20.0357 30.6302 19.3352 30.8682C18.0565 31.322 16.6933 31.4955 15.34 31.3765C15.1265 31.3441 15.0773 31.3495 15.0225 31.3765C14.9678 31.4036 15.0225 31.4631 15.0827 31.5172C15.3564 31.6956 15.63 31.8525 15.9146 32.0039C16.7619 32.4606 17.6576 32.8234 18.5854 33.0856C23.3906 34.3945 28.7979 33.4318 32.4045 29.8892C35.2395 27.1093 36.2356 23.2747 36.2356 19.4347C36.2356 19.2886 36.4162 19.2021 36.5202 19.1264C37.2374 18.5741 37.8697 17.9219 38.3974 17.1902C38.4888 17.0811 38.5356 16.9422 38.5287 16.8007C38.5287 16.7196 38.5287 16.7358 38.4248 16.7791Z" fill="white"/>
</g>
</g>
</g>
</svg>
